# xmcd
#
# Track frame offsets:
#	150
#	17685
#	28837
#	40217
#	52180
#	64110
#	80025
#	91457
#	107762
#	119780
#	133152
#	146365
#	155585
#	169342
#	182472
#	194677
#	205380
#	216767
#	228035
#
# Disc length: 3197
#
# Revision: 3
# Processed by: cddbd v1.5.1PL0 Copyright (c) Steve Scherf et al.
# Submitted via: OrangeCD 5.1
# Normalized: r2:DSETVAR1
#
DISCID=1d0c7b13
DTITLE=Various Artist - Country Music's Golden Hit Parade [CD 2)
DYEAR=1992
DGENRE=Country
TTITLE0=Kenny Rogers - Lady
TTITLE1=Roger Miller - King Of The  Road
TTITLE2=Sandy Posey - Single Girl
TTITLE3=Roger Miller - Little Green Apples
TTITLE4=Dolly Parton - Jolene
TTITLE5=Tom Jones - Detroit City
TTITLE6=Glenn Yarborough - The Honeywind Blows
TTITLE7=Rita Coolidge - We're All Alone
TTITLE8=Glen Campbell - Galveston
TTITLE9=Lynn Anderson - Rose Garden
TTITLE10=Crystal Gale - Talking In Your Sleep
TTITLE11=Jim Reeves - I Won't Forget You
TTITLE12=Johnny Cash - It Ain't Me Baby
TTITLE13=Frankie Laine - Cool Water
TTITLE14=Guy Mitchell - Heartaches By The Number
TTITLE15=Jimmie Rogers - Kisses Sweeter Than Wine
TTITLE16=Teresa Brewer - Let Me Go Lover
TTITLE17=Stonewall Jackson - Waterloo
TTITLE18=Johnny Horton - The Battle Of New Orleans
EXTD=
EXTT0=
EXTT1=
EXTT2=
EXTT3=
EXTT4=
EXTT5=
EXTT6=
EXTT7=
EXTT8=
EXTT9=
EXTT10=
EXTT11=
EXTT12=
EXTT13=
EXTT14=
EXTT15=
EXTT16=
EXTT17=
EXTT18=
PLAYORDER=
